<?xml version="1.0" encoding="UTF-8" standalone="no"?>
<svg id="Layer_2" data-name="Layer 2" xmlns="http://www.w3.org/2000/svg" viewBox="0 0 312.5 312.5">
  <defs>
    <style>
      .cls-1 {
        fill: #fff;
      }
    </style>
  </defs>
  <g id="icon-0">
    <g id="tight-bounds">
      <g>
        <path d="m0,156.25C0,70,70,0,156.25,0s156.25,70,156.25,156.25-70,156.25-156.25,156.25S0,242.5,0,156.25Z"/>
        <g>
          <g id="textblocktransform">
            <path id="text-0" class="cls-1" d="m64.07,229.69v-49.43l-6.52-.95v-3.97h40.45l1.11,12.32h-4.53l-2.3-7.71-19.71-.48v22.41l13.27-.24,1.11-6.6h4.37v18.28h-4.37l-1.11-6.83-13.27-.24v23.68l22.41-.79,4.21-10.01,4.69,1.43-2.3,13.83h-44.11v-3.89l6.6-.79Zm45.14,4.69v-3.89l6.6-.79v-49.43l-6.2-1.03v-3.89h10.41c1.48,0,3.5-.11,6.04-.32h0c2.65-.21,4.72-.32,6.2-.32h0c7.79,0,13.33,1.26,16.64,3.77,3.32,2.52,4.97,6.48,4.97,11.89h0c0,3.76-1.05,7.21-3.15,10.33-2.09,3.13-4.96,5.24-8.61,6.36h0c1.7.9,3.27,2.45,4.72,4.64,1.46,2.2,3.25,5.27,5.37,9.19h0c1.64,2.97,2.9,5.14,3.77,6.52.88,1.38,1.72,2.15,2.51,2.3h0l3.1.79v3.89h-10.97c-.85,0-1.8-.92-2.86-2.75-1.06-1.82-2.46-4.64-4.21-8.46h0c-1.91-4.19-3.57-7.51-4.97-9.98-1.4-2.46-2.79-4.03-4.16-4.72h0c-5.67,0-9.03-.03-10.09-.08h0v21.3l7.87.79v3.89h-22.97Zm24.56-30.2c3.39,0,6.07-1.11,8.03-3.34,1.96-2.23,2.94-5.54,2.94-9.93h0c0-3.87-1-6.82-2.99-8.87-1.98-2.03-5.41-3.05-10.28-3.05h0c-1.7,0-3.39.11-5.09.32h0c-1.06.11-1.75.16-2.07.16h0v24.64c.79.05,2.44.08,4.93.08h4.53Zm39.4,25.51v-49.43l-7.37-.95v-3.97h23.36v3.97l-7.39.95v49.43l7.39.87v3.81h-23.28v-3.89l7.3-.79Zm30.68-.08v-49.35l-6.36-.95v-3.97h14.78l26.46,38.78,4.45,8.42v-42.28l-6.91-.95v-3.97h18.75v3.97l-6.36.95v54.12h-6.28l-27.02-39.66-6.12-10.49v45.46l7.55.79v3.89h-19.31v-3.89l6.36-.87Z"/>
          </g>
          <g>
            <path class="cls-1" d="m151.75,158.73h0v-3.46h0c2.01,0,3.18-2.57,3.8-4.72,2.39-8.22.28-18.72-1.11-20.42-.04.04-.09.1-.15.17-4.42,5.32-10.16,8.65-14.27,8.28-1.77-.16-3.19-1.02-3.99-2.42-1.01-1.77-1.52-4.34-2.02-6.82-.35-1.75-1.17-5.84-2.01-6.07-1.51-.41-3.15-1.8-4.06-3.44-.67-1.2-.86-2.39-.55-3.44.35-1.18,1.5-3.28,3.21-6.35.77-1.37,1.49-2.67,1.94-3.57,1.07-2.16.84-5.29.36-6.21-1.18-2.25-1.46-12.16.78-14.75l2.62,2.27-1.31-1.13,1.31,1.13c-1.01,1.24-1.09,9.33-.33,10.88,1.05,2,1.18,6.34-.32,9.35-.48.97-1.23,2.31-2.01,3.71-1.12,2.01-2.65,4.76-2.92,5.66-.12.53,1.16,2.27,2.2,2.56,2.9.79,3.67,4.64,4.49,8.72.45,2.21.91,4.5,1.64,5.79.15.26.44.61,1.29.68,2.46.23,7.26-2.18,11.3-7.05,1.75-2.11,3.5-1.56,4.17-1.23,4.33,2.16,5.16,15.97,3.38,23.5-1.64,6.92-4.95,8.38-7.44,8.38"/>
            <path class="cls-1" d="m183.14,94c3.23,6.88,1.93,19.35,1.45,32.47-.29,7.87-.45,16.29-.66,22.32-.11,3.07.97,6.06,1.09,8.05.69,11.43-24.95-6.1-26.97-14.17-2.02-8.08-.89-19.03-2.18-24.08-1.3-5.05,6.2-25.1,6.2-25.1l21.07.51Z"/>
            <path class="cls-1" d="m180.81,89.54c-9.23-13.08-21.48-13.13-29.75-8.99,0,0-17.37.47-18.56,5-3.14,11.98-.48,31.11,34.46,36.5l12.5,1.15s10.58-20.58,1.35-33.66Zm-31.74,8.11s-3.87-9.46-3.88-13.54c0,0-2.55,1.27-4.44,4.24,0,0-.42-1.79-.15-3.09,0,0-4.16.53-5.78,2.21,0,0,.23-1.87,2.47-2.97,2.24-1.1,9.22-2.94,11.85-2.64,2.06.23-1.2,10.09-.07,15.8Zm10.57-16.12s2.37,1.87,4.23,7.05c0,0-4.64-5.03-7.79-5.84l-3.05-.52s6.54-3.77,10.28-2.54c1.22.4,10.68,4.39,13.05,12.59,0,0-10.37-9.77-16.72-10.74Z"/>
          </g>
          <g>
            <rect class="cls-1" x="192.98" y="154.26" width="60.85" height="5.38"/>
            <rect class="cls-1" x="58.68" y="154.26" width="60.85" height="5.38"/>
            <rect class="cls-1" x="192.98" y="143.49" width="60.85" height="5.38"/>
            <rect class="cls-1" x="58.68" y="143.49" width="60.85" height="5.38"/>
          </g>
        </g>
      </g>
    </g>
  </g>
</svg>